<svg width="197" height="84" viewBox="0 0 197 84" fill="none" xmlns="http://www.w3.org/2000/svg">
<path d="M92.8767 38.2238V2.2051H109.034C113.184 2.2051 116.375 3.04553 118.604 4.7264C120.834 6.37297 121.949 8.637 121.949 11.5185C121.949 13.4738 121.503 15.1204 120.611 16.4582C119.753 17.796 118.587 18.8251 117.112 19.5455C115.637 20.2659 114.042 20.6261 112.327 20.6261L113.253 19.0824C115.311 19.0824 117.129 19.4426 118.707 20.163C120.285 20.8833 121.537 21.9468 122.463 23.3532C123.39 24.7253 123.853 26.4405 123.853 28.4987C123.853 31.586 122.686 33.9873 120.354 35.7024C118.055 37.3833 114.625 38.2238 110.063 38.2238H92.8767ZM98.0222 34.0559H109.857C112.704 34.0559 114.882 33.5756 116.392 32.6151C117.901 31.6546 118.656 30.1453 118.656 28.0871C118.656 25.9946 117.901 24.4681 116.392 23.5076C114.882 22.5471 112.704 22.0668 109.857 22.0668H97.5591V17.8989H108.571C111.178 17.8989 113.202 17.4187 114.642 16.4582C116.083 15.4977 116.803 14.0569 116.803 12.136C116.803 10.215 116.083 8.77421 114.642 7.81372C113.202 6.85322 111.178 6.37297 108.571 6.37297H98.0222V34.0559Z" fill="#F5F5F5"/>
<path d="M131.82 38.2238V2.2051H136.965V38.2238H131.82Z" fill="#F5F5F5"/>
<path d="M164.009 38.6354C161.264 38.6354 158.709 38.1723 156.342 37.2461C154.009 36.3199 151.985 35.0335 150.27 33.387C148.555 31.7061 147.217 29.7508 146.257 27.5211C145.296 25.2913 144.816 22.8558 144.816 20.2144C144.816 17.5731 145.296 15.1375 146.257 12.9078C147.217 10.6781 148.555 8.73991 150.27 7.09334C151.985 5.41247 154.009 4.10894 156.342 3.18275C158.675 2.25655 161.23 1.79346 164.009 1.79346C166.753 1.79346 169.274 2.25655 171.573 3.18275C173.905 4.07464 175.929 5.36102 177.644 7.04189C179.394 8.68846 180.732 10.6266 181.658 12.8563C182.618 15.0861 183.099 17.5388 183.099 20.2144C183.099 22.8901 182.618 25.3428 181.658 27.5725C180.732 29.8022 179.394 31.7575 177.644 33.4384C175.929 35.085 173.905 36.3714 171.573 37.2976C169.274 38.1894 166.753 38.6354 164.009 38.6354ZM164.009 34.0559C165.998 34.0559 167.834 33.7128 169.514 33.0268C171.23 32.3407 172.705 31.3802 173.94 30.1453C175.209 28.8761 176.186 27.401 176.873 25.7201C177.593 24.0393 177.953 22.204 177.953 20.2144C177.953 18.2248 177.593 16.3896 176.873 14.7087C176.186 13.0278 175.209 11.5699 173.94 10.335C172.705 9.06579 171.23 8.08814 169.514 7.40207C167.834 6.71601 165.998 6.37297 164.009 6.37297C161.985 6.37297 160.115 6.71601 158.4 7.40207C156.719 8.08814 155.244 9.06579 153.975 10.335C152.706 11.5699 151.711 13.0278 150.991 14.7087C150.304 16.3896 149.961 18.2248 149.961 20.2144C149.961 22.204 150.304 24.0393 150.991 25.7201C151.711 27.401 152.706 28.8761 153.975 30.1453C155.244 31.3802 156.719 32.3407 158.4 33.0268C160.115 33.7128 161.985 34.0559 164.009 34.0559Z" fill="#F5F5F5"/>
<path d="M106.441 81.5935C104.025 81.5935 101.79 81.1931 99.7362 80.3923C97.7127 79.5607 95.9459 78.4058 94.4358 76.9274C92.956 75.4183 91.7932 73.6627 90.9475 71.6607C90.1019 69.6588 89.6791 67.4567 89.6791 65.0543C89.6791 62.652 90.1019 60.4498 90.9475 58.4479C91.7932 56.4459 92.9711 54.7058 94.4811 53.2274C95.9912 51.7183 97.758 50.5633 99.7815 49.7625C101.835 48.9309 104.07 48.5151 106.486 48.5151C108.933 48.5151 111.183 48.9463 113.236 49.8087C115.32 50.6403 117.087 51.8876 118.537 53.5508L115.592 56.4613C114.384 55.1678 113.025 54.213 111.515 53.597C110.005 52.9502 108.389 52.6268 106.668 52.6268C104.886 52.6268 103.225 52.9348 101.684 53.5508C100.174 54.1668 98.8604 55.0292 97.7429 56.1379C96.6255 57.2467 95.7496 58.5711 95.1154 60.111C94.5113 61.6202 94.2093 63.268 94.2093 65.0543C94.2093 66.8407 94.5113 68.5038 95.1154 70.0438C95.7496 71.5529 96.6255 72.8619 97.7429 73.9707C98.8604 75.0795 100.174 75.9418 101.684 76.5578C103.225 77.1738 104.886 77.4818 106.668 77.4818C108.389 77.4818 110.005 77.1738 111.515 76.5578C113.025 75.911 114.384 74.9255 115.592 73.6011L118.537 76.5116C117.087 78.1748 115.32 79.4375 113.236 80.2999C111.183 81.1623 108.918 81.5935 106.441 81.5935Z" fill="#F5F5F5"/>
<path d="M131.983 81.2239L121.383 48.8847H126.049L135.789 78.7292H133.433L143.536 48.8847H147.703L157.579 78.7292H155.314L165.19 48.8847H169.494L158.893 81.2239H154.136L144.895 53.5508H146.118L136.831 81.2239H131.983Z" fill="#F5F5F5"/>
<path d="M181.642 81.2239V52.904H170.77V48.8847H197V52.904H186.127V81.2239H181.642Z" fill="#F5F5F5"/>
<path d="M71.3092 2.01416C34.916 31.2899 -21.7554 76.9494 82.1869 51.1652" stroke="#F5F5F5" stroke-linecap="round"/>
<path d="M77.3524 2.41699C51.0311 26.5896 4.83448 68.086 82.1869 45.122" stroke="#F5F5F5" stroke-linecap="round"/>
<path d="M81.7841 8.05762C63.3861 24.9785 37.6288 55.3554 81.7841 39.8849" stroke="#F5F5F5" stroke-linecap="round"/>
<path d="M82.1869 21.3525C74.5322 27.3957 59.2229 44.3166 82.1869 33.036" stroke="#F5F5F5" stroke-linecap="round"/>
<path d="M2.0144 59.2228C0.805767 53.8511 6.28492 40.9321 20.1439 32.23C37.4676 21.3523 40.2878 26.5897 60.8345 2.01416" stroke="#F5F5F5" stroke-linecap="round"/>
<path d="M2.0144 35.4531C27.7986 24.1725 66.1525 1.04737 13.295 2.01427" stroke="#F5F5F5" stroke-linecap="round"/>
<path d="M7.65461 2.41699C23.7697 5.37143 51.5683 10.8774 1.61145 30.2155" stroke="#F5F5F5" stroke-linecap="round"/>
<path d="M1.61145 10.8774C15.7122 11.9518 38.6762 12.489 1.61145 22.158" stroke="#F5F5F5" stroke-linecap="round"/>
<path d="M81.7841 61.2372C72.3836 61.2372 48.5064 61.6401 39.4819 69.6977C30.4575 77.7552 10.7433 65.1317 1.61145 57.6113" stroke="#F5F5F5" stroke-linecap="round"/>
<path d="M47.9424 81.7841C51.2997 75.0695 54.7913 62.0431 81.7841 66.8777" stroke="#F5F5F5" stroke-linecap="round"/>
<path d="M61.6403 81.7839C62.3117 75.3379 64.4604 64.0573 81.7841 72.1149" stroke="#F5F5F5" stroke-linecap="round"/>
<path d="M2.41724 70.5034C12.0863 70.772 36.2589 75.3379 14.5036 81.784" stroke="#F5F5F5" stroke-linecap="round"/>
<path d="M2.0144 76.1435C8.72903 74.9348 24.1727 74.9349 9.2662 81.7838" stroke="#F5F5F5" stroke-linecap="round"/>
<rect x="2" y="2" width="79.7985" height="79.7985" rx="9" stroke="#F5F5F5" stroke-width="4"/>
</svg>
